{
    "asset" : {
        "generator" : "Khronos glTF Blender I/O v3.4.50",
        "version" : "2.0"
    },
    "scene" : 0,
    "scenes" : [
        {
            "name" : "Scene",
            "nodes" : [
                0
            ]
        }
    ],
    "nodes" : [
        {
            "mesh" : 0,
            "name" : "Object_8",
            "scale" : [
                0.3308093547821045,
                0.3308093547821045,
                0.3308093547821045
            ],
            "translation" : [
                -1.0257444381713867,
                1.5778050422668457,
                -2.587825298309326
            ]
        }
    ],
    "materials" : [
        {
            "doubleSided" : true,
            "name" : "Wheels",
            "pbrMetallicRoughness" : {
                "baseColorTexture" : {
                    "index" : 0
                },
                "metallicFactor" : 0,
                "roughnessFactor" : 0.5527859926223755
            }
        }
    ],
    "meshes" : [
        {
            "name" : "Object_2",
            "primitives" : [
                {
                    "attributes" : {
                        "POSITION" : 0,
                        "TEXCOORD_0" : 1,
                        "TEXCOORD_1" : 2,
                        "NORMAL" : 3
                    },
                    "indices" : 4,
                    "material" : 0
                }
            ]
        }
    ],
    "textures" : [
        {
            "sampler" : 0,
            "source" : 0
        }
    ],
    "images" : [
        {
            "mimeType" : "image/png",
            "name" : "Wheels_baseColor",
            "uri" : "Wheels_baseColor.png"
        }
    ],
    "accessors" : [
        {
            "bufferView" : 0,
            "componentType" : 5126,
            "count" : 56601,
            "max" : [
                44.3305549621582,
                33.05663299560547,
                14.535836219787598
            ],
            "min" : [
                -35.53453063964844,
                -42.11298751831055,
                -11.871253967285156
            ],
            "type" : "VEC3"
        },
        {
            "bufferView" : 1,
            "componentType" : 5126,
            "count" : 56601,
            "type" : "VEC2"
        },
        {
            "bufferView" : 2,
            "componentType" : 5126,
            "count" : 56601,
            "type" : "VEC2"
        },
        {
            "bufferView" : 3,
            "componentType" : 5126,
            "count" : 56601,
            "type" : "VEC3"
        },
        {
            "bufferView" : 4,
            "componentType" : 5123,
            "count" : 143670,
            "type" : "SCALAR"
        }
    ],
    "bufferViews" : [
        {
            "buffer" : 0,
            "byteLength" : 679212,
            "byteOffset" : 0,
            "target" : 34962
        },
        {
            "buffer" : 0,
            "byteLength" : 452808,
            "byteOffset" : 679212,
            "target" : 34962
        },
        {
            "buffer" : 0,
            "byteLength" : 452808,
            "byteOffset" : 1132020,
            "target" : 34962
        },
        {
            "buffer" : 0,
            "byteLength" : 679212,
            "byteOffset" : 1584828,
            "target" : 34962
        },
        {
            "buffer" : 0,
            "byteLength" : 287340,
            "byteOffset" : 2264040,
            "target" : 34963
        }
    ],
    "samplers" : [
        {
            "magFilter" : 9729,
            "minFilter" : 9987
        }
    ],
    "buffers" : [
        {
            "byteLength" : 2551380,
            "uri" : "tyre.bin"
        }
    ]
}
