{
    "asset" : {
        "generator" : "Khronos glTF Blender I/O v3.4.50",
        "version" : "2.0"
    },
    "scene" : 0,
    "scenes" : [
        {
            "name" : "Scene",
            "nodes" : [
                5
            ]
        }
    ],
    "nodes" : [
        {
            "mesh" : 0,
            "name" : "Object_10",
            "translation" : [
                -12.615738868713379,
                15.40953254699707,
                0.5147380828857422
            ]
        },
        {
            "mesh" : 1,
            "name" : "Object_8",
            "translation" : [
                -19.495840072631836,
                7.064181804656982,
                -1.6624164581298828
            ]
        },
        {
            "mesh" : 2,
            "name" : "Object_9",
            "translation" : [
                -13.329937934875488,
                1.4359407424926758,
                -2.042940139770508
            ]
        },
        {
            "children" : [
                0,
                1,
                2
            ],
            "name" : "ApolloRoverRig__1.001_2",
            "translation" : [
                0,
                3.933906555175781e-06,
                0
            ]
        },
        {
            "children" : [
                3
            ],
            "name" : "ApolloRoverRig_92"
        },
        {
            "children" : [
                4
            ],
            "name" : "ApolloRoverRig__1_93",
            "scale" : [
                0.009999999776482582,
                0.009999999776482582,
                0.009999999776482582
            ],
            "translation" : [
                0.14535684883594513,
                -0.012701518833637238,
                -0.030192919075489044
            ]
        }
    ],
    "materials" : [
        {
            "doubleSided" : true,
            "name" : "Wheels",
            "pbrMetallicRoughness" : {
                "baseColorTexture" : {
                    "index" : 0
                },
                "metallicFactor" : 0,
                "roughnessFactor" : 0.5527859926223755
            }
        }
    ],
    "meshes" : [
        {
            "name" : "Object_4",
            "primitives" : [
                {
                    "attributes" : {
                        "POSITION" : 0,
                        "TEXCOORD_0" : 1,
                        "TEXCOORD_1" : 2,
                        "NORMAL" : 3
                    },
                    "indices" : 4,
                    "material" : 0
                }
            ]
        },
        {
            "name" : "Object_2",
            "primitives" : [
                {
                    "attributes" : {
                        "POSITION" : 5,
                        "TEXCOORD_0" : 6,
                        "TEXCOORD_1" : 7,
                        "NORMAL" : 8
                    },
                    "indices" : 9,
                    "material" : 0
                }
            ]
        },
        {
            "name" : "Object_3",
            "primitives" : [
                {
                    "attributes" : {
                        "POSITION" : 10,
                        "TEXCOORD_0" : 11,
                        "TEXCOORD_1" : 12,
                        "NORMAL" : 13
                    },
                    "indices" : 14,
                    "material" : 0
                }
            ]
        }
    ],
    "textures" : [
        {
            "sampler" : 0,
            "source" : 0
        }
    ],
    "images" : [
        {
            "mimeType" : "image/png",
            "name" : "Wheels_baseColor",
            "uri" : "Wheels_baseColor.png"
        }
    ],
    "accessors" : [
        {
            "bufferView" : 0,
            "componentType" : 5126,
            "count" : 10464,
            "max" : [
                37.45045471191406,
                24.711284637451172,
                12.358681678771973
            ],
            "min" : [
                -42.06520462036133,
                -50.458335876464844,
                -12.87680721282959
            ],
            "type" : "VEC3"
        },
        {
            "bufferView" : 1,
            "componentType" : 5126,
            "count" : 10464,
            "type" : "VEC2"
        },
        {
            "bufferView" : 2,
            "componentType" : 5126,
            "count" : 10464,
            "type" : "VEC2"
        },
        {
            "bufferView" : 3,
            "componentType" : 5126,
            "count" : 10464,
            "type" : "VEC3"
        },
        {
            "bufferView" : 4,
            "componentType" : 5123,
            "count" : 32025,
            "type" : "SCALAR"
        },
        {
            "bufferView" : 5,
            "componentType" : 5126,
            "count" : 22518,
            "max" : [
                41.77493667602539,
                32.88391876220703,
                13.35439682006836
            ],
            "min" : [
                -35.53453063964844,
                -41.98652267456055,
                -11.871253967285156
            ],
            "type" : "VEC3"
        },
        {
            "bufferView" : 6,
            "componentType" : 5126,
            "count" : 22518,
            "type" : "VEC2"
        },
        {
            "bufferView" : 7,
            "componentType" : 5126,
            "count" : 22518,
            "type" : "VEC2"
        },
        {
            "bufferView" : 8,
            "componentType" : 5126,
            "count" : 22518,
            "type" : "VEC3"
        },
        {
            "bufferView" : 9,
            "componentType" : 5123,
            "count" : 54279,
            "type" : "SCALAR"
        },
        {
            "bufferView" : 10,
            "componentType" : 5126,
            "count" : 23040,
            "max" : [
                38.16465377807617,
                35.14723205566406,
                14.22683334350586
            ],
            "min" : [
                -35.898292541503906,
                -36.484745025634766,
                -11.226795196533203
            ],
            "type" : "VEC3"
        },
        {
            "bufferView" : 11,
            "componentType" : 5126,
            "count" : 23040,
            "type" : "VEC2"
        },
        {
            "bufferView" : 12,
            "componentType" : 5126,
            "count" : 23040,
            "type" : "VEC2"
        },
        {
            "bufferView" : 13,
            "componentType" : 5126,
            "count" : 23040,
            "type" : "VEC3"
        },
        {
            "bufferView" : 14,
            "componentType" : 5123,
            "count" : 57366,
            "type" : "SCALAR"
        }
    ],
    "bufferViews" : [
        {
            "buffer" : 0,
            "byteLength" : 125568,
            "byteOffset" : 0,
            "target" : 34962
        },
        {
            "buffer" : 0,
            "byteLength" : 83712,
            "byteOffset" : 125568,
            "target" : 34962
        },
        {
            "buffer" : 0,
            "byteLength" : 83712,
            "byteOffset" : 209280,
            "target" : 34962
        },
        {
            "buffer" : 0,
            "byteLength" : 125568,
            "byteOffset" : 292992,
            "target" : 34962
        },
        {
            "buffer" : 0,
            "byteLength" : 64050,
            "byteOffset" : 418560,
            "target" : 34963
        },
        {
            "buffer" : 0,
            "byteLength" : 270216,
            "byteOffset" : 482612,
            "target" : 34962
        },
        {
            "buffer" : 0,
            "byteLength" : 180144,
            "byteOffset" : 752828,
            "target" : 34962
        },
        {
            "buffer" : 0,
            "byteLength" : 180144,
            "byteOffset" : 932972,
            "target" : 34962
        },
        {
            "buffer" : 0,
            "byteLength" : 270216,
            "byteOffset" : 1113116,
            "target" : 34962
        },
        {
            "buffer" : 0,
            "byteLength" : 108558,
            "byteOffset" : 1383332,
            "target" : 34963
        },
        {
            "buffer" : 0,
            "byteLength" : 276480,
            "byteOffset" : 1491892,
            "target" : 34962
        },
        {
            "buffer" : 0,
            "byteLength" : 184320,
            "byteOffset" : 1768372,
            "target" : 34962
        },
        {
            "buffer" : 0,
            "byteLength" : 184320,
            "byteOffset" : 1952692,
            "target" : 34962
        },
        {
            "buffer" : 0,
            "byteLength" : 276480,
            "byteOffset" : 2137012,
            "target" : 34962
        },
        {
            "buffer" : 0,
            "byteLength" : 114732,
            "byteOffset" : 2413492,
            "target" : 34963
        }
    ],
    "samplers" : [
        {
            "magFilter" : 9729,
            "minFilter" : 9987
        }
    ],
    "buffers" : [
        {
            "byteLength" : 2528224,
            "uri" : "tyre.bin"
        }
    ]
}
